<mxfile host="app.diagrams.net" modified="2022-04-21T21:11:54.421Z" agent="5.0 (Windows)" etag="nHLJUNqNMzUUKDXwk0aH" version="17.4.6" type="github">
  <diagram id="XeYqtyaIKt5ym0LSXPJl" name="Page-1">
    <mxGraphModel dx="1655" dy="976" grid="1" gridSize="10" guides="1" tooltips="1" connect="1" arrows="1" fold="1" page="1" pageScale="1" pageWidth="827" pageHeight="1169" math="0" shadow="0">
      <root>
        <mxCell id="0" />
        <mxCell id="1" parent="0" />
        <mxCell id="noaQm3X6n15fM3hQjgwo-1" value="Convolution + Relu" style="rounded=1;whiteSpace=wrap;html=1;" vertex="1" parent="1">
          <mxGeometry x="280" y="260" width="190" height="60" as="geometry" />
        </mxCell>
        <mxCell id="noaQm3X6n15fM3hQjgwo-2" value="Convolution" style="rounded=1;whiteSpace=wrap;html=1;" vertex="1" parent="1">
          <mxGeometry x="280" y="390" width="190" height="60" as="geometry" />
        </mxCell>
        <mxCell id="noaQm3X6n15fM3hQjgwo-3" value="" style="endArrow=classic;html=1;rounded=0;" edge="1" parent="1">
          <mxGeometry width="50" height="50" relative="1" as="geometry">
            <mxPoint x="374.5" y="140" as="sourcePoint" />
            <mxPoint x="374.5" y="260" as="targetPoint" />
          </mxGeometry>
        </mxCell>
        <mxCell id="noaQm3X6n15fM3hQjgwo-4" value="&lt;div&gt;Input&lt;/div&gt;" style="rounded=1;whiteSpace=wrap;html=1;" vertex="1" parent="1">
          <mxGeometry x="335" y="90" width="80" height="50" as="geometry" />
        </mxCell>
        <mxCell id="noaQm3X6n15fM3hQjgwo-5" value="" style="endArrow=classic;html=1;rounded=0;" edge="1" parent="1">
          <mxGeometry width="50" height="50" relative="1" as="geometry">
            <mxPoint x="374.5" y="320" as="sourcePoint" />
            <mxPoint x="375" y="390" as="targetPoint" />
          </mxGeometry>
        </mxCell>
        <mxCell id="noaQm3X6n15fM3hQjgwo-6" value="&lt;font style=&quot;font-size: 19px&quot;&gt;&lt;b&gt;+&lt;/b&gt;&lt;/font&gt;" style="ellipse;whiteSpace=wrap;html=1;aspect=fixed;" vertex="1" parent="1">
          <mxGeometry x="355" y="520" width="40" height="40" as="geometry" />
        </mxCell>
        <mxCell id="noaQm3X6n15fM3hQjgwo-7" value="" style="endArrow=classic;html=1;rounded=0;" edge="1" parent="1">
          <mxGeometry width="50" height="50" relative="1" as="geometry">
            <mxPoint x="374.5" y="450" as="sourcePoint" />
            <mxPoint x="375" y="520" as="targetPoint" />
          </mxGeometry>
        </mxCell>
        <mxCell id="noaQm3X6n15fM3hQjgwo-10" value="" style="endArrow=classic;html=1;rounded=0;fontSize=19;entryX=1;entryY=0.5;entryDx=0;entryDy=0;" edge="1" parent="1" target="noaQm3X6n15fM3hQjgwo-6">
          <mxGeometry width="50" height="50" relative="1" as="geometry">
            <mxPoint x="380" y="200" as="sourcePoint" />
            <mxPoint x="560" y="560" as="targetPoint" />
            <Array as="points">
              <mxPoint x="560" y="200" />
              <mxPoint x="560" y="540" />
            </Array>
          </mxGeometry>
        </mxCell>
        <mxCell id="noaQm3X6n15fM3hQjgwo-12" value="" style="endArrow=classic;html=1;rounded=0;fontSize=19;" edge="1" parent="1">
          <mxGeometry width="50" height="50" relative="1" as="geometry">
            <mxPoint x="374.09000000000003" y="560" as="sourcePoint" />
            <mxPoint x="374.09000000000003" y="630" as="targetPoint" />
          </mxGeometry>
        </mxCell>
        <mxCell id="noaQm3X6n15fM3hQjgwo-14" value="F(Input)" style="text;html=1;align=center;verticalAlign=middle;resizable=0;points=[];autosize=1;strokeColor=none;fillColor=none;fontSize=19;" vertex="1" parent="1">
          <mxGeometry x="295" y="475" width="80" height="30" as="geometry" />
        </mxCell>
        <mxCell id="noaQm3X6n15fM3hQjgwo-15" value="Relu(F(Input) + Input)" style="text;html=1;align=center;verticalAlign=middle;resizable=0;points=[];autosize=1;strokeColor=none;fillColor=none;fontSize=19;" vertex="1" parent="1">
          <mxGeometry x="280" y="640" width="200" height="30" as="geometry" />
        </mxCell>
      </root>
    </mxGraphModel>
  </diagram>
</mxfile>
